<mxfile host="app.diagrams.net" modified="2023-04-04T06:21:40.376Z" agent="5.0 (Windows NT 10.0; Win64; x64) AppleWebKit/537.36 (KHTML, like Gecko) Chrome/111.0.0.0 Safari/537.36 Edg/111.0.1661.62" etag="Mekd384R_Vx_M0U8MAZy" version="20.8.16" type="github">
  <diagram name="Page-1" id="9361dd3d-8414-5efd-6122-117bd74ce7a7">
    <mxGraphModel dx="647" dy="1106" grid="1" gridSize="10" guides="1" tooltips="1" connect="1" arrows="1" fold="1" page="0" pageScale="1.5" pageWidth="826" pageHeight="1169" background="none" math="0" shadow="0">
      <root>
        <mxCell id="0" />
        <mxCell id="1" parent="0" />
        <mxCell id="wyFLHZAN_gWCc96CKfNZ-89" value="Power Mnager" style="shape=umlLifeline;perimeter=lifelinePerimeter;whiteSpace=wrap;html=1;container=1;collapsible=0;recursiveResize=0;outlineConnect=0;" vertex="1" parent="1">
          <mxGeometry x="150" y="-520" width="100" height="300" as="geometry" />
        </mxCell>
        <mxCell id="wyFLHZAN_gWCc96CKfNZ-94" value="" style="html=1;points=[];perimeter=orthogonalPerimeter;" vertex="1" parent="wyFLHZAN_gWCc96CKfNZ-89">
          <mxGeometry x="45" y="70" width="10" height="80" as="geometry" />
        </mxCell>
        <mxCell id="wyFLHZAN_gWCc96CKfNZ-92" value="1" style="endArrow=open;html=1;endSize=12;startArrow=diamondThin;startSize=14;startFill=0;edgeStyle=orthogonalEdgeStyle;align=left;verticalAlign=bottom;rounded=0;" edge="1" parent="wyFLHZAN_gWCc96CKfNZ-89">
          <mxGeometry x="-1" y="3" relative="1" as="geometry">
            <mxPoint x="-115" y="70" as="sourcePoint" />
            <mxPoint x="45" y="70" as="targetPoint" />
          </mxGeometry>
        </mxCell>
        <mxCell id="wyFLHZAN_gWCc96CKfNZ-93" value="Low Volltage" style="edgeLabel;html=1;align=center;verticalAlign=middle;resizable=0;points=[];" vertex="1" connectable="0" parent="wyFLHZAN_gWCc96CKfNZ-92">
          <mxGeometry x="-0.875" y="-4" relative="1" as="geometry">
            <mxPoint as="offset" />
          </mxGeometry>
        </mxCell>
        <mxCell id="wyFLHZAN_gWCc96CKfNZ-95" value="Voltage monitor" style="text;html=1;strokeColor=none;fillColor=none;align=center;verticalAlign=middle;whiteSpace=wrap;rounded=0;" vertex="1" parent="wyFLHZAN_gWCc96CKfNZ-89">
          <mxGeometry x="-50" y="100" width="95" height="20" as="geometry" />
        </mxCell>
        <mxCell id="wyFLHZAN_gWCc96CKfNZ-96" value="Low Voltage" style="html=1;verticalAlign=bottom;endArrow=block;rounded=0;entryX=0.035;entryY=0;entryDx=0;entryDy=0;entryPerimeter=0;" edge="1" parent="wyFLHZAN_gWCc96CKfNZ-89" target="wyFLHZAN_gWCc96CKfNZ-97">
          <mxGeometry width="80" relative="1" as="geometry">
            <mxPoint x="50" y="150" as="sourcePoint" />
            <mxPoint x="330" y="150" as="targetPoint" />
          </mxGeometry>
        </mxCell>
        <mxCell id="wyFLHZAN_gWCc96CKfNZ-90" value="mtouch" style="shape=umlLifeline;perimeter=lifelinePerimeter;whiteSpace=wrap;html=1;container=1;collapsible=0;recursiveResize=0;outlineConnect=0;" vertex="1" parent="1">
          <mxGeometry x="450" y="-530" width="140" height="300" as="geometry" />
        </mxCell>
        <mxCell id="wyFLHZAN_gWCc96CKfNZ-97" value="" style="html=1;points=[];perimeter=orthogonalPerimeter;" vertex="1" parent="wyFLHZAN_gWCc96CKfNZ-90">
          <mxGeometry x="65" y="160" width="10" height="80" as="geometry" />
        </mxCell>
        <mxCell id="wyFLHZAN_gWCc96CKfNZ-98" value="stop receive corrdinate" style="text;html=1;strokeColor=none;fillColor=none;align=center;verticalAlign=middle;whiteSpace=wrap;rounded=0;" vertex="1" parent="wyFLHZAN_gWCc96CKfNZ-90">
          <mxGeometry x="65" y="160" width="85" height="30" as="geometry" />
        </mxCell>
      </root>
    </mxGraphModel>
  </diagram>
</mxfile>
